<?xml version="1.0" encoding="UTF-8"?>
<svg width="24" height="24" viewBox="0 0 24 24" fill="none" xmlns="http://www.w3.org/2000/svg">
  <!-- Bell Body -->
  <path d="M12 22c1.1 0 2-.9 2-2h-4c0 1.1.9 2 2 2zm6-6v-5c0-3.07-1.63-5.64-4.5-6.32V4c0-.83-.67-1.5-1.5-1.5s-1.5.67-1.5 1.5v.68C7.64 5.36 6 7.92 6 11v5l-2 2v1h16v-1l-2-2z" fill="currentColor"/>
  
  <!-- Notification Dot -->
  <circle cx="18" cy="6" r="3" fill="#FF5252">
    <animate attributeName="opacity" values="1;0;1" dur="2s" repeatCount="indefinite"/>
  </circle>
  
  <!-- Sound Waves -->
  <path d="M4.5 10.5C4.5 7.5 7 4.5 12 4.5" stroke="currentColor" stroke-width="1.5" stroke-linecap="round" opacity="0.5">
    <animate attributeName="opacity" values="0.5;0;0.5" dur="1s" repeatCount="indefinite"/>
  </path>
  <path d="M19.5 10.5C19.5 7.5 17 4.5 12 4.5" stroke="currentColor" stroke-width="1.5" stroke-linecap="round" opacity="0.5">
    <animate attributeName="opacity" values="0.5;0;0.5" dur="1s" repeatCount="indefinite" begin="0.5s"/>
  </path>
</svg> 