<?xml version="1.0" encoding="UTF-8"?>
<svg width="24" height="24" viewBox="0 0 24 24" fill="none" xmlns="http://www.w3.org/2000/svg">
  <!-- Camera Body -->
  <path d="M20 5h-3.17L15 3H9L7.17 5H4c-1.1 0-2 .9-2 2v12c0 1.1.9 2 2 2h16c1.1 0 2-.9 2-2V7c0-1.1-.9-2-2-2z" fill="currentColor"/>
  
  <!-- Lens -->
  <path d="M12 8c-2.76 0-5 2.24-5 5s2.24 5 5 5 5-2.24 5-5-2.24-5-5-5zm0 8c-1.65 0-3-1.35-3-3s1.35-3 3-3 3 1.35 3 3-1.35 3-3 3z" fill="currentColor"/>
  
  <!-- Flash -->
  <path d="M17 8h-1v1h1V8z" fill="currentColor"/>
  
  <!-- Focus Point -->
  <circle cx="12" cy="13" r="1" fill="currentColor">
    <animate attributeName="r" values="1;2;1" dur="2s" repeatCount="indefinite"/>
  </circle>
</svg> 